<svg width="19.000000" height="9.000000" viewBox="0 0 19 9" fill="none" xmlns="http://www.w3.org/2000/svg" xmlns:xlink="http://www.w3.org/1999/xlink">
	<desc>
			Created with Pixso.
	</desc>
	<defs/>
	<path id="Vector" d="M1.5 -0.66C1.41 -0.74 1.3 -0.81 1.19 -0.85C1.07 -0.9 0.95 -0.92 0.83 -0.91C0.71 -0.91 0.58 -0.88 0.47 -0.83C0.36 -0.78 0.26 -0.71 0.17 -0.62C0.09 -0.53 0.02 -0.43 -0.02 -0.31C-0.06 -0.2 -0.09 -0.07 -0.08 0.05C-0.08 0.17 -0.05 0.29 0 0.41C0.05 0.52 0.12 0.62 0.21 0.7L8.64 8.67C8.82 8.83 9.05 8.92 9.29 8.92C9.53 8.92 9.76 8.83 9.93 8.67L18.36 0.7C18.46 0.62 18.53 0.52 18.58 0.41C18.63 0.29 18.66 0.17 18.67 0.05C18.67 -0.08 18.65 -0.2 18.61 -0.32C18.56 -0.43 18.5 -0.54 18.41 -0.63C18.33 -0.72 18.22 -0.79 18.11 -0.84C18 -0.89 17.88 -0.92 17.75 -0.92C17.63 -0.93 17.5 -0.9 17.39 -0.86C17.27 -0.81 17.17 -0.74 17.08 -0.66L9.29 6.7L1.5 -0.66Z" fill="#222222" fill-opacity="1.000000" fill-rule="nonzero"/>
</svg>
