<svg width="242" height="46" viewBox="0 0 242 46" fill="none" xmlns="http://www.w3.org/2000/svg">
<path d="M240.539 0.863159L240.699 5.27917H240.311C240.133 4.53871 239.932 3.9276 239.709 3.44586C239.495 2.96411 239.187 2.59834 238.786 2.34854C238.384 2.08983 237.835 1.96047 237.14 1.96047H233.165V10.2438H236.337C237.282 10.2438 237.969 10.0342 238.398 9.61488C238.835 9.19559 239.089 8.57556 239.16 7.75481H239.548V13.5358H239.16C239.026 12.6615 238.701 12.0771 238.183 11.7827C237.666 11.4883 237.05 11.3411 236.337 11.3411H233.165V17.015C233.165 18.6566 234.013 19.4773 235.708 19.4773H236.912C237.724 19.4773 238.384 19.3702 238.893 19.1561C239.41 18.942 239.834 18.5763 240.164 18.0588C240.503 17.5325 240.806 16.792 241.074 15.8374H241.462L241.168 20.5746H226.314V20.1865C227.349 20.1865 228.018 19.9546 228.321 19.4907C228.624 19.0179 228.776 18.4023 228.776 17.644V3.83393C228.776 3.11131 228.638 2.5002 228.361 2.00062C228.085 1.50103 227.447 1.25123 226.448 1.25123H226.314V0.863159H240.539Z" fill="white"/>
<path d="M223.383 6.32292H222.995C222.478 4.95797 221.612 3.85174 220.399 3.00422C219.195 2.14778 217.785 1.71956 216.17 1.71956C214.921 1.71956 213.882 1.9872 213.052 2.52248C212.223 3.05775 211.576 3.77145 211.112 4.66357C210.657 5.54677 210.34 6.5058 210.162 7.54067C209.983 8.57553 209.894 9.66838 209.894 10.8192C209.894 13.674 210.461 15.8686 211.594 17.4031C212.736 18.9286 214.27 19.6914 216.197 19.6914C217.58 19.6914 218.445 19.4862 218.793 19.0758C219.141 18.6654 219.315 18.0588 219.315 17.2559V14.981C219.315 14.526 219.279 14.1245 219.208 13.7766C219.137 13.4287 218.949 13.112 218.646 12.8265C218.351 12.5321 217.901 12.3671 217.294 12.3314V11.9165H225.511V12.3314C224.306 12.492 223.704 13.228 223.704 14.5394V19.3435C221.599 20.3069 219.217 20.7887 216.558 20.7887C215.488 20.7887 214.515 20.7173 213.641 20.5746C212.776 20.4229 212.004 20.2177 211.326 19.959C210.648 19.6914 210.077 19.4059 209.613 19.1026C209.149 18.7903 208.712 18.4424 208.302 18.0588C207.74 17.5235 207.236 16.908 206.79 16.2121C206.352 15.5162 205.991 14.7089 205.706 13.79C205.429 12.8622 205.291 11.8452 205.291 10.7389C205.291 9.24908 205.554 7.8886 206.08 6.65747C206.616 5.42634 207.369 4.36025 208.342 3.4592C209.314 2.54924 210.425 1.85784 211.674 1.38502C212.932 0.912194 214.257 0.675781 215.648 0.675781C216.433 0.675781 217.111 0.729309 217.682 0.836363C218.253 0.943418 219.212 1.17537 220.559 1.53222C220.988 1.67496 221.452 1.74633 221.951 1.74633C222.478 1.74633 222.825 1.3984 222.995 0.702545H223.383V6.32292Z" fill="white"/>
<path d="M181.364 0.863159H192.136C193.894 0.863159 195.468 1.13526 196.86 1.67945C198.261 2.21473 199.429 2.95965 200.366 3.91422C201.303 4.86879 202.008 5.95718 202.481 7.17939C202.953 8.39268 203.19 9.67733 203.19 11.0334C203.19 12.3537 202.967 13.5848 202.521 14.7267C202.084 15.8687 201.419 16.8812 200.527 17.7644C199.635 18.6476 198.52 19.339 197.181 19.8386C195.843 20.3293 194.335 20.5746 192.658 20.5746H181.364V20.1865C182.399 20.1865 183.064 19.959 183.358 19.5041C183.661 19.0402 183.813 18.4201 183.813 17.644V3.86069C183.813 3.12915 183.679 2.51359 183.411 2.014C183.144 1.50549 182.51 1.25123 181.511 1.25123H181.364V0.863159ZM188.189 2.18796V16.627C188.189 17.3228 188.265 17.8759 188.416 18.2863C188.577 18.6967 188.871 19 189.299 19.1963C189.728 19.3836 190.374 19.4773 191.24 19.4773C192.016 19.4773 192.712 19.4282 193.327 19.3301C193.943 19.223 194.523 19.0179 195.067 18.7145C195.87 18.2506 196.53 17.6128 197.048 16.8009C197.574 15.9891 197.957 15.097 198.198 14.1246C198.439 13.1522 198.56 12.1485 198.56 11.1137C198.56 10.0431 198.417 8.97702 198.131 7.91539C197.846 6.85376 197.378 5.87243 196.726 4.97139C196.084 4.07034 195.21 3.34326 194.104 2.79014C193.006 2.23703 191.668 1.96047 190.089 1.96047C189.527 1.96047 188.894 2.0363 188.189 2.18796Z" fill="white"/>
<path d="M171.448 1.22447V0.863159H180.708V1.25123C179.683 1.25123 179.018 1.48765 178.715 1.96047C178.42 2.42437 178.273 3.03994 178.273 3.80717V17.644C178.273 18.0811 178.313 18.4737 178.393 18.8216C178.474 19.1695 178.683 19.4862 179.022 19.7717C179.37 20.0483 179.897 20.1865 180.601 20.1865H180.708V20.5746H171.448V20.1865C172.465 20.1865 173.125 19.9546 173.429 19.4907C173.732 19.0268 173.884 18.4112 173.884 17.644V3.80717C173.884 2.8972 173.683 2.24149 173.282 1.84003C172.889 1.42966 172.278 1.22447 171.448 1.22447Z" fill="white"/>
<path d="M157.25 11.3411H156.621V17.644C156.621 18.3934 156.733 18.9554 156.956 19.3301C157.179 19.6959 157.451 19.9323 157.772 20.0393C158.093 20.1375 158.521 20.1955 159.057 20.2133V20.5746H149.796V20.1865C150.831 20.1865 151.496 19.9546 151.79 19.4907C152.085 19.0268 152.232 18.4112 152.232 17.644V3.83393C152.232 2.88828 152.04 2.22365 151.656 1.84003C151.273 1.4475 150.653 1.25123 149.796 1.25123V0.863159H160.02C161.367 0.863159 162.549 1.07281 163.566 1.49211C164.583 1.9114 165.359 2.50467 165.895 3.27189C166.43 4.03912 166.698 4.91786 166.698 5.90811C166.698 6.71103 166.528 7.42472 166.189 8.04921C165.85 8.67369 165.391 9.18667 164.811 9.58812C164.24 9.98958 163.602 10.2974 162.897 10.5115C163.816 11.0913 164.708 12.1173 165.574 13.5893L167.929 17.5905C168.33 18.2774 168.7 18.8127 169.039 19.1963C169.378 19.571 169.677 19.8208 169.936 19.9457C170.195 20.0616 170.476 20.1419 170.779 20.1865V20.5746H164.423C163.807 19.4595 163.334 18.5718 163.004 17.9116C161.952 15.8508 161.184 14.419 160.703 13.6161C160.221 12.8131 159.721 12.2333 159.204 11.8764C158.695 11.5196 158.044 11.3411 157.25 11.3411ZM157.692 1.96047H156.621V10.2438H157.518C159.052 10.2438 160.207 9.87806 160.984 9.14652C161.76 8.40606 162.148 7.34443 162.148 5.96164C162.148 5.1052 161.978 4.38258 161.639 3.79378C161.309 3.19606 160.81 2.74108 160.141 2.42883C159.48 2.11659 158.664 1.96047 157.692 1.96047Z" fill="white"/>
<path d="M141.941 20.5746H130.072V20.1865C131.106 20.1865 131.771 19.9546 132.065 19.4907C132.36 19.0268 132.507 18.4112 132.507 17.644V3.80717C132.507 3.10239 132.373 2.5002 132.106 2.00062C131.847 1.50103 131.222 1.25123 130.232 1.25123H130.072V0.863159H140.349C141.714 0.863159 142.847 1.01928 143.748 1.33152C144.203 1.50995 144.68 1.7642 145.18 2.09429C145.679 2.42437 146.134 2.88828 146.545 3.486C146.964 4.08372 147.174 4.79296 147.174 5.61371C147.174 6.6575 146.87 7.50055 146.264 8.14288C145.666 8.78521 144.997 9.24019 144.256 9.50783C143.525 9.77547 142.816 9.97619 142.129 10.11V10.1635C142.691 10.2171 143.32 10.3241 144.015 10.4847C144.72 10.6453 145.398 10.904 146.049 11.2609C146.71 11.6177 147.272 12.1396 147.736 12.8265C148.199 13.5045 148.431 14.361 148.431 15.3958C148.431 16.4842 148.15 17.421 147.588 18.206C147.035 18.9822 146.295 19.5888 145.367 20.026C144.823 20.2847 144.296 20.4408 143.788 20.4943C143.279 20.5479 142.664 20.5746 141.941 20.5746ZM138.261 1.96047H136.896V9.88252H138.261C139.278 9.88252 140.26 9.64165 141.205 9.1599C142.151 8.66923 142.624 7.55854 142.624 5.82782C142.624 4.55209 142.222 3.54845 141.419 2.81691C141.143 2.54035 140.777 2.3307 140.322 2.18796C139.867 2.0363 139.18 1.96047 138.261 1.96047ZM138.395 10.9798H136.896V17.2827C136.896 18.2373 137.133 18.8439 137.606 19.1026C138.078 19.3524 138.681 19.4773 139.412 19.4773C139.894 19.4773 140.349 19.4461 140.777 19.3836C141.205 19.3212 141.647 19.1651 142.102 18.9153C142.557 18.6655 142.94 18.2551 143.253 17.6841C143.565 17.1043 143.721 16.3236 143.721 15.3423C143.721 14.2539 143.485 13.3886 143.012 12.7462C142.548 12.1039 141.919 11.6489 141.125 11.3813C140.331 11.1137 139.421 10.9798 138.395 10.9798Z" fill="white"/>
<path d="M106.506 11.3411H105.877V17.644C105.877 18.3934 105.989 18.9554 106.212 19.3301C106.435 19.6959 106.707 19.9323 107.028 20.0393C107.349 20.1375 107.777 20.1955 108.313 20.2133V20.5746H99.0525V20.1865C100.087 20.1865 100.752 19.9546 101.046 19.4907C101.341 19.0268 101.488 18.4112 101.488 17.644V3.83393C101.488 2.88828 101.296 2.22365 100.913 1.84003C100.529 1.4475 99.9089 1.25123 99.0525 1.25123V0.863159H109.276C110.623 0.863159 111.805 1.07281 112.822 1.49211C113.839 1.9114 114.616 2.50467 115.151 3.27189C115.686 4.03912 115.954 4.91786 115.954 5.90811C115.954 6.71103 115.784 7.42472 115.445 8.04921C115.106 8.67369 114.647 9.18667 114.067 9.58812C113.496 9.98958 112.858 10.2974 112.153 10.5115C113.072 11.0913 113.964 12.1173 114.83 13.5893L117.185 17.5905C117.586 18.2774 117.957 18.8127 118.296 19.1963C118.635 19.571 118.933 19.8208 119.192 19.9457C119.451 20.0616 119.732 20.1419 120.035 20.1865V20.5746H113.679C113.063 19.4595 112.59 18.5718 112.26 17.9116C111.208 15.8508 110.44 14.419 109.959 13.6161C109.477 12.8131 108.977 12.2333 108.46 11.8764C107.951 11.5196 107.3 11.3411 106.506 11.3411ZM106.948 1.96047H105.877V10.2438H106.774C108.308 10.2438 109.464 9.87806 110.24 9.14652C111.016 8.40606 111.404 7.34443 111.404 5.96164C111.404 5.1052 111.234 4.38258 110.895 3.79378C110.565 3.19606 110.066 2.74108 109.397 2.42883C108.736 2.11659 107.92 1.96047 106.948 1.96047Z" fill="white"/>
<path d="M97.2459 0.863159L97.4065 5.27917H97.0184C96.84 4.53871 96.6393 3.9276 96.4162 3.44586C96.2021 2.96411 95.8943 2.59834 95.4929 2.34854C95.0914 2.08983 94.5428 1.96047 93.8469 1.96047H89.8725V10.2438H93.044C93.9896 10.2438 94.6766 10.0342 95.1048 9.61488C95.5419 9.19559 95.7962 8.57556 95.8676 7.75481H96.2556V13.5358H95.8676C95.7337 12.6615 95.4081 12.0771 94.8907 11.7827C94.3733 11.4883 93.7577 11.3411 93.044 11.3411H89.8725V17.015C89.8725 18.6566 90.72 19.4773 92.415 19.4773H93.6194C94.4312 19.4773 95.0914 19.3702 95.5999 19.1561C96.1174 18.942 96.5411 18.5763 96.8712 18.0588C97.2102 17.5325 97.5135 16.792 97.7812 15.8374H98.1692L97.8748 20.5746H83.021V20.1865C84.0559 20.1865 84.7249 19.9546 85.0283 19.4907C85.3316 19.0179 85.4833 18.4023 85.4833 17.644V3.83393C85.4833 3.11131 85.345 2.5002 85.0684 2.00062C84.7919 1.50103 84.154 1.25123 83.1548 1.25123H83.021V0.863159H97.2459Z" fill="white"/>
<path d="M82.4992 0.863159V1.25123C81.7498 1.34937 81.1164 1.67053 80.5989 2.21473C80.0815 2.75 79.6176 3.61536 79.2072 4.8108L73.7474 20.762H73.346L67.8862 4.46288H67.8327L62.132 20.762H61.6904L55.963 3.57967C55.7489 2.91058 55.4768 2.41099 55.1467 2.08091C54.8166 1.7419 54.4865 1.52333 54.1564 1.4252C53.8353 1.32706 53.4963 1.26908 53.1394 1.25123V0.863159H62.2123V1.25123C61.7038 1.278 61.2756 1.41628 60.9276 1.66607C60.5797 1.91586 60.4057 2.28163 60.4057 2.76338C60.4057 3.0667 60.4771 3.44139 60.6199 3.88746L63.5237 12.6526H63.5906L67.1234 2.6028C66.945 2.23703 66.7532 1.96047 66.548 1.77312C66.3517 1.58578 66.1109 1.46088 65.8254 1.39843C65.5399 1.32706 65.1697 1.278 64.7147 1.25123V0.863159H73.5869V1.25123C73.0694 1.25123 72.6546 1.31814 72.3423 1.45196C72.039 1.57686 71.8874 1.88464 71.8874 2.37531C71.8874 2.56265 71.9052 2.75 71.9409 2.93735C71.9855 3.11577 72.0435 3.3388 72.1149 3.60644C72.1952 3.86515 72.2398 4.00343 72.2487 4.02127L75.1258 12.6526H75.1793L77.9226 4.54317C78.1367 3.89192 78.2437 3.3611 78.2437 2.95073C78.2437 2.23703 78.043 1.78205 77.6416 1.58578C77.249 1.38059 76.7584 1.26908 76.1696 1.25123V0.863159H82.4992Z" fill="white"/>
<path d="M32.2637 10.6586C32.2637 9.32045 32.4912 8.04026 32.9461 6.81805C33.4101 5.59584 34.0881 4.52529 34.9802 3.6064C35.8723 2.6786 36.9518 1.96044 38.2186 1.45193C39.4943 0.934497 40.9351 0.675781 42.5409 0.675781C44.1646 0.675781 45.6098 0.938958 46.8766 1.46531C48.1524 1.98274 49.2318 2.70536 50.1151 3.63317C51.0072 4.56098 51.6807 5.63598 52.1357 6.85819C52.5907 8.07148 52.8182 9.36506 52.8182 10.7389C52.8182 12.1039 52.5952 13.3885 52.1491 14.5929C51.712 15.7973 51.0652 16.8633 50.2087 17.7912C49.3523 18.719 48.2728 19.4505 46.9703 19.9858C45.6767 20.5211 44.2092 20.7887 42.5677 20.7887C40.8013 20.7887 39.2579 20.4898 37.9376 19.8921C36.6262 19.2855 35.5511 18.487 34.7126 17.4968C33.8829 16.5065 33.2673 15.4137 32.8659 14.2182C32.4644 13.0228 32.2637 11.8362 32.2637 10.6586ZM36.9473 10.4044C36.9473 11.7426 37.0455 13.0629 37.2417 14.3654C37.4469 15.659 37.9688 16.8723 38.8074 18.0053C39.646 19.1293 40.9083 19.6914 42.5945 19.6914C44.9586 19.6914 46.4707 18.7413 47.1309 16.841C47.8 14.9319 48.1345 12.9871 48.1345 11.0066C48.1345 9.46319 48.0007 8.01795 47.7331 6.67085C47.4654 5.32374 46.9168 4.1729 46.0871 3.21833C45.2664 2.25484 44.1021 1.77309 42.5945 1.77309C40.8994 1.77309 39.6326 2.32175 38.794 3.41906C37.9643 4.50745 37.4469 5.66721 37.2417 6.89834C37.0455 8.12947 36.9473 9.29815 36.9473 10.4044Z" fill="white"/>
<path d="M30.4571 20.5746H15.4426V20.1865C16.4686 20.1865 17.1287 19.959 17.4231 19.5041C17.7265 19.0402 17.8781 18.4201 17.8781 17.644V3.80717C17.8781 2.95073 17.6908 2.31286 17.3161 1.89356C16.9503 1.46534 16.3258 1.25123 15.4426 1.25123V0.863159H24.7564V1.25123C23.7304 1.25123 23.0569 1.48318 22.7357 1.94709C22.4235 2.40207 22.2674 3.0221 22.2674 3.80717V16.9883C22.2674 17.8001 22.4235 18.4201 22.7357 18.8484C23.048 19.2677 23.6591 19.4773 24.569 19.4773H25.934C26.8618 19.4773 27.7361 19.2409 28.5568 18.7681C29.3776 18.2952 30.1091 17.1979 30.7515 15.4761H31.1395L30.4571 20.5746Z" fill="white"/>
<path d="M14.0242 0.863159L14.332 4.35582H13.9439C13.7476 3.77594 13.5558 3.33434 13.3685 3.03102C13.19 2.7277 12.8867 2.47344 12.4585 2.26825C12.0303 2.06306 11.4281 1.96047 10.6519 1.96047H6.79798V10.0297H10.1568C10.8616 10.0297 11.5039 9.8513 12.0838 9.49445C12.6726 9.12868 12.9893 8.47297 13.0339 7.52732H13.4488V13.228H13.0339C12.9893 12.6392 12.7663 12.1396 12.3648 11.7292C11.9634 11.3188 11.3389 11.1137 10.4914 11.1137H6.79798V17.644C6.79798 18.3934 6.97194 19.0045 7.31987 19.4773C7.6678 19.9501 8.29674 20.1865 9.20671 20.1865H9.34053V20.5746H0V20.1865C1.0081 20.1865 1.65935 19.959 1.95375 19.5041C2.25707 19.0491 2.40873 18.4291 2.40873 17.644V3.7804C2.40873 3.08455 2.27491 2.49128 2.00728 2.00062C1.74856 1.50103 1.12407 1.25123 0.133818 1.25123H0V0.863159H14.0242Z" fill="white"/>
<path fill-rule="evenodd" clip-rule="evenodd" d="M218.292 27.4558H15.4282V26.4558H218.292V27.4558Z" fill="white"/>
<path d="M214.818 32.9137C215.86 32.9137 216.697 33.2769 217.329 34.0032C217.971 34.7295 218.292 35.8242 218.292 37.2874C218.292 38.2453 218.145 39.0558 217.85 39.719C217.566 40.3716 217.16 40.8663 216.634 41.2032C216.118 41.5295 215.508 41.6926 214.803 41.6926C214.371 41.6926 213.987 41.6348 213.65 41.519C213.313 41.4032 213.024 41.2558 212.781 41.0769C212.55 40.8874 212.35 40.6821 212.181 40.4611H212.087C212.108 40.64 212.129 40.8663 212.15 41.14C212.171 41.4137 212.181 41.6505 212.181 41.8505V45.3242H210.792V33.0716H211.929L212.118 34.2242H212.181C212.35 33.9821 212.55 33.7611 212.781 33.5611C213.024 33.3611 213.308 33.2032 213.634 33.0874C213.971 32.9716 214.366 32.9137 214.818 32.9137ZM214.566 34.0821C213.997 34.0821 213.539 34.1926 213.192 34.4137C212.845 34.6242 212.592 34.9453 212.434 35.3769C212.276 35.8084 212.192 36.3558 212.181 37.019V37.2874C212.181 37.9821 212.255 38.5716 212.403 39.0558C212.55 39.54 212.797 39.9084 213.145 40.1611C213.503 40.4137 213.987 40.54 214.597 40.54C215.113 40.54 215.534 40.3979 215.86 40.1137C216.197 39.8295 216.445 39.4453 216.603 38.9611C216.771 38.4663 216.855 37.9032 216.855 37.2716C216.855 36.3032 216.666 35.5295 216.287 34.9505C215.918 34.3716 215.345 34.0821 214.566 34.0821Z" fill="white"/>
<path d="M201.201 32.9137C201.927 32.9137 202.548 33.0716 203.064 33.3874C203.59 33.7032 203.99 34.1505 204.264 34.7295C204.548 35.2979 204.69 35.9663 204.69 36.7347V37.5716H198.896C198.917 38.5295 199.159 39.2611 199.622 39.7663C200.096 40.2611 200.753 40.5084 201.596 40.5084C202.132 40.5084 202.606 40.4611 203.017 40.3663C203.438 40.2611 203.869 40.1137 204.311 39.9242V41.14C203.88 41.3295 203.453 41.4663 203.032 41.5505C202.611 41.6453 202.111 41.6926 201.532 41.6926C200.732 41.6926 200.022 41.5295 199.401 41.2032C198.79 40.8769 198.311 40.3926 197.964 39.7505C197.627 39.0979 197.459 38.3032 197.459 37.3663C197.459 36.44 197.611 35.6453 197.917 34.9821C198.232 34.319 198.669 33.8084 199.227 33.4505C199.796 33.0926 200.453 32.9137 201.201 32.9137ZM201.185 34.0505C200.522 34.0505 199.996 34.2663 199.606 34.6979C199.227 35.119 199.001 35.7084 198.927 36.4663H203.238C203.238 35.9821 203.164 35.5611 203.017 35.2032C202.869 34.8453 202.643 34.5663 202.338 34.3663C202.043 34.1558 201.659 34.0505 201.185 34.0505Z" fill="white"/>
<path d="M190.941 33.0715H192.457L188.841 37.1452L192.757 41.5347H191.147L187.326 37.24V41.5347H185.936V33.0715H187.326V37.1768L190.941 33.0715Z" fill="white"/>
<path d="M179.786 37.2874C179.786 37.9926 179.692 38.619 179.502 39.1663C179.323 39.7032 179.06 40.1611 178.713 40.54C178.376 40.919 177.96 41.2084 177.465 41.4084C176.981 41.5979 176.439 41.6926 175.839 41.6926C175.281 41.6926 174.765 41.5979 174.292 41.4084C173.818 41.2084 173.407 40.919 173.06 40.54C172.713 40.1611 172.439 39.7032 172.239 39.1663C172.05 38.619 171.955 37.9926 171.955 37.2874C171.955 36.3505 172.113 35.5611 172.429 34.919C172.744 34.2663 173.197 33.7716 173.786 33.4347C174.376 33.0874 175.076 32.9137 175.886 32.9137C176.655 32.9137 177.329 33.0874 177.907 33.4347C178.497 33.7716 178.955 34.2663 179.281 34.919C179.618 35.5611 179.786 36.3505 179.786 37.2874ZM173.392 37.2874C173.392 37.9505 173.476 38.5295 173.644 39.0242C173.823 39.5084 174.097 39.8821 174.465 40.1453C174.834 40.4084 175.302 40.54 175.871 40.54C176.439 40.54 176.907 40.4084 177.276 40.1453C177.644 39.8821 177.913 39.5084 178.081 39.0242C178.26 38.5295 178.35 37.9505 178.35 37.2874C178.35 36.6137 178.26 36.04 178.081 35.5663C177.902 35.0926 177.629 34.7295 177.26 34.4769C176.902 34.2137 176.434 34.0821 175.855 34.0821C174.992 34.0821 174.365 34.3663 173.976 34.9347C173.586 35.5032 173.392 36.2874 173.392 37.2874Z" fill="white"/>
<path d="M162.793 32.9137C163.836 32.9137 164.672 33.2769 165.304 34.0032C165.946 34.7295 166.267 35.8242 166.267 37.2874C166.267 38.2453 166.12 39.0558 165.825 39.719C165.541 40.3716 165.136 40.8663 164.609 41.2032C164.093 41.5295 163.483 41.6926 162.778 41.6926C162.346 41.6926 161.962 41.6348 161.625 41.519C161.288 41.4032 160.999 41.2558 160.757 41.0769C160.525 40.8874 160.325 40.6821 160.157 40.4611H160.062C160.083 40.64 160.104 40.8663 160.125 41.14C160.146 41.4137 160.157 41.6505 160.157 41.8505V45.3242H158.767V33.0716H159.904L160.093 34.2242H160.157C160.325 33.9821 160.525 33.7611 160.757 33.5611C160.999 33.3611 161.283 33.2032 161.609 33.0874C161.946 32.9716 162.341 32.9137 162.793 32.9137ZM162.541 34.0821C161.972 34.0821 161.514 34.1926 161.167 34.4137C160.82 34.6242 160.567 34.9453 160.409 35.3769C160.251 35.8084 160.167 36.3558 160.157 37.019V37.2874C160.157 37.9821 160.23 38.5716 160.378 39.0558C160.525 39.54 160.772 39.9084 161.12 40.1611C161.478 40.4137 161.962 40.54 162.572 40.54C163.088 40.54 163.509 40.3979 163.836 40.1137C164.172 39.8295 164.42 39.4453 164.578 38.9611C164.746 38.4663 164.83 37.9032 164.83 37.2716C164.83 36.3032 164.641 35.5295 164.262 34.9505C163.893 34.3716 163.32 34.0821 162.541 34.0821Z" fill="white"/>
<path d="M144.926 36.4505C144.926 35.219 145.047 34.1716 145.289 33.3084C145.541 32.4348 145.926 31.74 146.441 31.2242C146.968 30.6979 147.641 30.3453 148.462 30.1663C149.147 30.019 149.815 29.8874 150.468 29.7716C151.12 29.6558 151.731 29.5505 152.299 29.4558L152.536 30.6716C152.262 30.7137 151.957 30.7663 151.62 30.8295C151.283 30.8821 150.941 30.94 150.594 31.0032C150.247 31.0558 149.91 31.1137 149.583 31.1769C149.268 31.2295 148.989 31.2821 148.747 31.3348C148.399 31.4084 148.089 31.5348 147.815 31.7137C147.541 31.8821 147.304 32.1137 147.104 32.4084C146.915 32.7032 146.762 33.0663 146.647 33.4979C146.531 33.9295 146.462 34.44 146.441 35.0295H146.536C146.683 34.8295 146.883 34.6242 147.136 34.4137C147.399 34.2032 147.71 34.0242 148.068 33.8769C148.436 33.7295 148.852 33.6558 149.315 33.6558C150.052 33.6558 150.662 33.819 151.147 34.1453C151.641 34.4611 152.01 34.9032 152.252 35.4716C152.504 36.04 152.631 36.7032 152.631 37.4611C152.631 38.3979 152.468 39.1821 152.141 39.8137C151.815 40.4453 151.362 40.919 150.783 41.2348C150.204 41.54 149.531 41.6927 148.762 41.6927C148.183 41.6927 147.657 41.5821 147.183 41.3611C146.71 41.1295 146.304 40.7927 145.968 40.3505C145.631 39.9084 145.373 39.3611 145.194 38.7084C145.015 38.0558 144.926 37.3032 144.926 36.4505ZM148.873 40.54C149.336 40.54 149.736 40.4453 150.073 40.2558C150.42 40.0663 150.689 39.7558 150.878 39.3242C151.068 38.8927 151.162 38.319 151.162 37.6032C151.162 36.74 150.999 36.0611 150.673 35.5663C150.357 35.0611 149.831 34.8084 149.094 34.8084C148.631 34.8084 148.21 34.9137 147.831 35.1242C147.452 35.3242 147.136 35.5558 146.883 35.819C146.631 36.0821 146.452 36.3032 146.347 36.4821C146.347 36.9979 146.383 37.4979 146.457 37.9821C146.531 38.4663 146.657 38.9032 146.836 39.2927C147.026 39.6716 147.283 39.9769 147.61 40.2084C147.947 40.4295 148.368 40.54 148.873 40.54Z" fill="white"/>
<path d="M130.633 29.5663C130.591 30.0926 130.459 30.5347 130.238 30.8926C130.028 31.2505 129.712 31.5189 129.291 31.6979C128.87 31.8768 128.322 31.9663 127.649 31.9663C126.964 31.9663 126.412 31.8768 125.991 31.6979C125.58 31.5189 125.28 31.2558 125.091 30.9084C124.901 30.5505 124.786 30.1031 124.743 29.5663H126.038C126.091 30.1347 126.238 30.5189 126.48 30.7189C126.733 30.9084 127.133 31.0031 127.68 31.0031C128.164 31.0031 128.543 30.9031 128.817 30.7031C129.101 30.4926 129.27 30.1137 129.322 29.5663H130.633ZM125.091 38.2347C125.091 38.3294 125.086 38.4663 125.075 38.6452C125.075 38.8137 125.07 38.9979 125.059 39.1979C125.049 39.3873 125.038 39.5715 125.028 39.7505C125.017 39.9189 125.007 40.0558 124.996 40.161L129.528 33.0715H131.233V41.5347H129.938V36.5452C129.938 36.3768 129.938 36.1558 129.938 35.8821C129.949 35.6084 129.959 35.34 129.97 35.0768C129.98 34.8031 129.991 34.5979 130.001 34.461L125.501 41.5347H123.78V33.0715H125.091V38.2347Z" fill="white"/>
<path d="M107.544 41.5347V33.0715H108.933V36.5452H111.128C111.865 36.5452 112.47 36.6347 112.944 36.8136C113.417 36.9926 113.77 37.261 114.002 37.6189C114.233 37.9663 114.349 38.4084 114.349 38.9452C114.349 39.4715 114.233 39.9294 114.002 40.3189C113.781 40.7084 113.428 41.0084 112.944 41.2189C112.47 41.4294 111.844 41.5347 111.065 41.5347H107.544ZM110.938 40.4136C111.538 40.4136 112.028 40.3136 112.407 40.1136C112.786 39.9031 112.975 39.54 112.975 39.0242C112.975 38.5084 112.802 38.161 112.454 37.9821C112.107 37.7926 111.607 37.6978 110.954 37.6978H108.933V40.4136H110.938ZM115.754 41.5347V33.0715H117.144V41.5347H115.754Z" fill="white"/>
<path d="M94.9324 33.0715V36.5926H99.5272V33.0715H100.917V41.5347H99.5272V37.761H94.9324V41.5347H93.543V33.0715H94.9324Z" fill="white"/>
<path d="M81.128 36.1505C81.128 36.6452 81.2648 37.0136 81.5385 37.2557C81.8227 37.4873 82.228 37.6031 82.7543 37.6031C83.2806 37.6031 83.7596 37.5242 84.1912 37.3663C84.6227 37.1978 85.0648 36.9768 85.5175 36.7031V33.0715H86.907V41.5347H85.5175V37.761C85.0438 38.0663 84.5754 38.3084 84.1122 38.4873C83.6596 38.6557 83.1122 38.74 82.4701 38.74C81.607 38.74 80.9333 38.5136 80.4491 38.061C79.9754 37.6084 79.7385 37.0031 79.7385 36.2452V33.0715H81.128V36.1505Z" fill="white"/>
<path d="M73.9168 37.2874C73.9168 37.9926 73.822 38.619 73.6326 39.1663C73.4536 39.7032 73.1905 40.1611 72.8431 40.54C72.5063 40.919 72.0905 41.2084 71.5957 41.4084C71.1115 41.5979 70.5694 41.6926 69.9694 41.6926C69.4115 41.6926 68.8957 41.5979 68.4221 41.4084C67.9484 41.2084 67.5378 40.919 67.1905 40.54C66.8431 40.1611 66.5694 39.7032 66.3694 39.1663C66.1799 38.619 66.0852 37.9926 66.0852 37.2874C66.0852 36.3505 66.2431 35.5611 66.5589 34.919C66.8747 34.2663 67.3273 33.7716 67.9168 33.4347C68.5063 33.0874 69.2063 32.9137 70.0168 32.9137C70.7852 32.9137 71.4589 33.0874 72.0378 33.4347C72.6273 33.7716 73.0852 34.2663 73.4115 34.919C73.7484 35.5611 73.9168 36.3505 73.9168 37.2874ZM67.522 37.2874C67.522 37.9505 67.6063 38.5295 67.7747 39.0242C67.9536 39.5084 68.2273 39.8821 68.5957 40.1453C68.9642 40.4084 69.4326 40.54 70.001 40.54C70.5694 40.54 71.0378 40.4084 71.4063 40.1453C71.7747 39.8821 72.0431 39.5084 72.2115 39.0242C72.3905 38.5295 72.4799 37.9505 72.4799 37.2874C72.4799 36.6137 72.3905 36.04 72.2115 35.5663C72.0326 35.0926 71.7589 34.7295 71.3905 34.4769C71.0326 34.2137 70.5642 34.0821 69.9852 34.0821C69.122 34.0821 68.4957 34.3663 68.1063 34.9347C67.7168 35.5032 67.522 36.2874 67.522 37.2874Z" fill="white"/>
<path d="M61.0986 34.24H58.3355V41.5347H56.9618V34.24H54.2302V33.0715H61.0986V34.24Z" fill="white"/>
<path d="M45.6652 32.9137C46.3915 32.9137 47.0126 33.0716 47.5284 33.3874C48.0547 33.7032 48.4547 34.1505 48.7284 34.7295C49.0126 35.2979 49.1547 35.9663 49.1547 36.7347V37.5716H43.3599C43.381 38.5295 43.6231 39.2611 44.0863 39.7663C44.5599 40.2611 45.2178 40.5084 46.0599 40.5084C46.5968 40.5084 47.0705 40.4611 47.481 40.3663C47.902 40.2611 48.3336 40.1137 48.7757 39.9242V41.14C48.3441 41.3295 47.9178 41.4663 47.4968 41.5505C47.0757 41.6453 46.5757 41.6926 45.9968 41.6926C45.1968 41.6926 44.4863 41.5295 43.8652 41.2032C43.2547 40.8769 42.7757 40.3926 42.4284 39.7505C42.0915 39.0979 41.9231 38.3032 41.9231 37.3663C41.9231 36.44 42.0757 35.6453 42.381 34.9821C42.6968 34.319 43.1336 33.8084 43.6915 33.4505C44.2599 33.0926 44.9178 32.9137 45.6652 32.9137ZM45.6494 34.0505C44.9863 34.0505 44.4599 34.2663 44.0705 34.6979C43.6915 35.119 43.4652 35.7084 43.3915 36.4663H47.702C47.702 35.9821 47.6284 35.5611 47.481 35.2032C47.3336 34.8453 47.1073 34.5663 46.802 34.3663C46.5073 34.1558 46.1231 34.0505 45.6494 34.0505Z" fill="white"/>
<path d="M36.1571 35.2031C36.1571 35.7294 35.9992 36.14 35.6834 36.4347C35.3676 36.7294 34.9623 36.9294 34.4676 37.0347V37.0978C34.9939 37.1715 35.4518 37.361 35.8413 37.6663C36.2308 37.961 36.4255 38.4242 36.4255 39.0557C36.4255 39.4136 36.3571 39.7452 36.2202 40.0505C36.0939 40.3557 35.8939 40.6189 35.6202 40.84C35.3465 41.061 34.9939 41.2347 34.5623 41.361C34.1308 41.4768 33.6097 41.5347 32.9992 41.5347H29.3518V33.0715H32.9834C33.5834 33.0715 34.1202 33.14 34.5939 33.2768C35.0781 33.4031 35.4571 33.6242 35.7308 33.94C36.015 34.2452 36.1571 34.6663 36.1571 35.2031ZM34.9886 39.0557C34.9886 38.5715 34.8044 38.2242 34.436 38.0136C34.0676 37.8031 33.5255 37.6978 32.8097 37.6978H30.7413V40.4136H32.8413C33.536 40.4136 34.0676 40.3136 34.436 40.1136C34.8044 39.9031 34.9886 39.5505 34.9886 39.0557ZM34.7518 35.3768C34.7518 34.9768 34.6044 34.6873 34.3097 34.5084C34.0255 34.3189 33.5571 34.2242 32.9044 34.2242H30.7413V36.5452H32.6518C33.336 36.5452 33.8571 36.4505 34.215 36.261C34.5729 36.0715 34.7518 35.7768 34.7518 35.3768Z" fill="white"/>
<path d="M23.7809 44.4715H22.423V41.5347H15.4282V33.0715H16.8177V40.3663H21.1914V33.0715H22.5809V40.3821H23.7809V44.4715Z" fill="white"/>
</svg>
