<svg width="120" height="24" viewBox="0 0 120 24" fill="none" xmlns="http://www.w3.org/2000/svg">
<path d="M118.881 1.05933L118.96 3.24183H118.768C118.68 2.87588 118.581 2.57385 118.471 2.33576C118.365 2.09767 118.213 1.9169 118.015 1.79344C117.816 1.66558 117.545 1.60165 117.201 1.60165H115.237V5.6955H116.804C117.272 5.6955 117.611 5.59189 117.823 5.38466C118.039 5.17743 118.164 4.871 118.2 4.46536H118.391V7.32246H118.2C118.134 6.89037 117.973 6.60157 117.717 6.45607C117.461 6.31057 117.157 6.23782 116.804 6.23782H115.237V9.04202C115.237 9.85329 115.656 10.2589 116.493 10.2589H117.089C117.49 10.2589 117.816 10.206 118.067 10.1002C118.323 9.99438 118.533 9.81361 118.696 9.55788C118.863 9.29774 119.013 8.93179 119.145 8.46001H119.337L119.192 10.8013H111.851V10.6095C112.362 10.6095 112.693 10.4948 112.843 10.2655C112.993 10.0319 113.067 9.72763 113.067 9.35286V2.52756C113.067 2.17042 112.999 1.8684 112.862 1.62149C112.726 1.37458 112.411 1.25112 111.917 1.25112H111.851V1.05933H118.881Z" fill="#222222"/>
<path d="M110.402 3.75776H110.21C109.954 3.08317 109.526 2.53644 108.927 2.11757C108.332 1.6943 107.635 1.48266 106.837 1.48266C106.22 1.48266 105.706 1.61494 105.296 1.87948C104.886 2.14403 104.566 2.49676 104.337 2.93767C104.112 3.37417 103.956 3.84815 103.867 4.35961C103.779 4.87106 103.735 5.41118 103.735 5.97995C103.735 7.39087 104.015 8.47551 104.575 9.23387C105.139 9.98783 105.898 10.3648 106.85 10.3648C107.534 10.3648 107.961 10.2634 108.133 10.0606C108.305 9.85776 108.391 9.55794 108.391 9.16112V8.0368C108.391 7.81194 108.373 7.61353 108.338 7.44157C108.303 7.26962 108.21 7.11309 108.06 6.972C107.915 6.8265 107.692 6.74493 107.392 6.7273V6.52227H111.453V6.7273C110.858 6.80666 110.56 7.17041 110.56 7.81855V10.1929C109.52 10.669 108.343 10.9071 107.029 10.9071C106.5 10.9071 106.019 10.8719 105.587 10.8013C105.159 10.7264 104.778 10.6249 104.443 10.4971C104.108 10.3648 103.825 10.2237 103.596 10.0738C103.367 9.91949 103.151 9.74754 102.948 9.55794C102.67 9.2934 102.421 8.98917 102.201 8.64526C101.985 8.30135 101.806 7.90232 101.665 7.44819C101.528 6.98964 101.46 6.487 101.46 5.94027C101.46 5.20395 101.59 4.53156 101.85 3.9231C102.115 3.31465 102.487 2.78776 102.968 2.34244C103.448 1.89271 103.997 1.551 104.615 1.31732C105.236 1.08364 105.891 0.966797 106.579 0.966797C106.967 0.966797 107.302 0.993251 107.584 1.04616C107.866 1.09907 108.34 1.21371 109.006 1.39007C109.218 1.46062 109.447 1.49589 109.694 1.49589C109.954 1.49589 110.126 1.32393 110.21 0.980024H110.402V3.75776Z" fill="#222222"/>
<path d="M89.6357 1.05933H94.9597C95.8283 1.05933 96.6065 1.1938 97.2944 1.46276C97.9866 1.72731 98.5642 2.09547 99.0271 2.56724C99.4901 3.03902 99.8384 3.57693 100.072 4.18097C100.306 4.78061 100.423 5.41552 100.423 6.08571C100.423 6.73826 100.312 7.34671 100.092 7.91108C99.8759 8.47545 99.5474 8.97588 99.1065 9.41238C98.6656 9.84888 98.1145 10.1906 97.4531 10.4375C96.7917 10.68 96.0466 10.8013 95.2177 10.8013H89.6357V10.6095C90.1472 10.6095 90.4757 10.497 90.6212 10.2722C90.7711 10.0429 90.846 9.73645 90.846 9.35286V2.54079C90.846 2.17924 90.7799 1.87501 90.6476 1.6281C90.5154 1.37678 90.2023 1.25112 89.7085 1.25112H89.6357V1.05933ZM93.0087 1.71408V8.85022C93.0087 9.19413 93.0462 9.46749 93.1211 9.67031C93.2005 9.87313 93.346 10.023 93.5576 10.12C93.7693 10.2126 94.0889 10.2589 94.5166 10.2589C94.9002 10.2589 95.2441 10.2347 95.5484 10.1862C95.8526 10.1333 96.1392 10.0319 96.4081 9.88195C96.8049 9.65268 97.1312 9.33743 97.387 8.9362C97.6471 8.53497 97.8367 8.09406 97.9557 7.61347C98.0748 7.13287 98.1343 6.63685 98.1343 6.12539C98.1343 5.5963 98.0637 5.06941 97.9227 4.54473C97.7816 4.02004 97.5501 3.53504 97.2282 3.08972C96.9108 2.6444 96.4787 2.28506 95.9319 2.01169C95.3896 1.73833 94.7283 1.60165 93.9478 1.60165C93.6701 1.60165 93.357 1.63912 93.0087 1.71408Z" fill="#222222"/>
<path d="M84.7344 1.23789V1.05933H89.311V1.25112C88.804 1.25112 88.4755 1.36796 88.3256 1.60165C88.1801 1.83092 88.1073 2.13515 88.1073 2.51433V9.35286C88.1073 9.5689 88.1272 9.76291 88.1669 9.93486C88.2065 10.1068 88.3102 10.2633 88.4777 10.4044C88.6497 10.5411 88.9098 10.6095 89.2581 10.6095H89.311V10.8013H84.7344V10.6095C85.237 10.6095 85.5633 10.4948 85.7132 10.2655C85.8631 10.0363 85.9381 9.73204 85.9381 9.35286V2.51433C85.9381 2.0646 85.8389 1.74053 85.6404 1.54212C85.4464 1.3393 85.1444 1.23789 84.7344 1.23789Z" fill="#222222"/>
<path d="M77.717 6.23782H77.4062V9.35286C77.4062 9.72322 77.4613 10.001 77.5715 10.1862C77.6817 10.367 77.8162 10.4838 77.9749 10.5367C78.1337 10.5852 78.3453 10.6139 78.6099 10.6227V10.8013H74.0332V10.6095C74.5447 10.6095 74.8731 10.4948 75.0186 10.2655C75.1641 10.0363 75.2369 9.73204 75.2369 9.35286V2.52756C75.2369 2.06019 75.1421 1.73172 74.9525 1.54212C74.7629 1.34812 74.4565 1.25112 74.0332 1.25112V1.05933H79.086C79.7518 1.05933 80.336 1.16294 80.8387 1.37017C81.3413 1.5774 81.7249 1.8706 81.9894 2.24979C82.254 2.62897 82.3863 3.06327 82.3863 3.55268C82.3863 3.9495 82.3025 4.30222 82.1349 4.61086C81.9674 4.9195 81.7403 5.17302 81.4537 5.37143C81.1715 5.56984 80.8563 5.72196 80.508 5.82778C80.9621 6.11437 81.403 6.62142 81.8307 7.34892L82.9947 9.3264C83.1931 9.6659 83.3761 9.93045 83.5436 10.12C83.7112 10.3052 83.8589 10.4287 83.9868 10.4904C84.1146 10.5477 84.2535 10.5874 84.4034 10.6095V10.8013H81.2619C80.9577 10.2501 80.724 9.81141 80.5609 9.48513C80.0406 8.46663 79.6614 7.75897 79.4233 7.36215C79.1852 6.96533 78.9383 6.67873 78.6826 6.50237C78.4313 6.32601 78.1094 6.23782 77.717 6.23782ZM77.9353 1.60165H77.4062V5.6955H77.8493C78.6076 5.6955 79.1786 5.51473 79.5622 5.15318C79.9458 4.78723 80.1376 4.26254 80.1376 3.57913C80.1376 3.15586 80.0538 2.79872 79.8863 2.50772C79.7232 2.21231 79.4762 1.98744 79.1456 1.83312C78.8193 1.67881 78.4159 1.60165 77.9353 1.60165Z" fill="#222222"/>
<path d="M70.1515 10.8013H64.2852V10.6095C64.7966 10.6095 65.1251 10.4948 65.2706 10.2655C65.4161 10.0363 65.4888 9.73204 65.4888 9.35286V2.51433C65.4888 2.16601 65.4227 1.8684 65.2904 1.62149C65.1626 1.37458 64.8539 1.25112 64.3645 1.25112H64.2852V1.05933H69.3644C70.039 1.05933 70.599 1.13649 71.0443 1.2908C71.2692 1.37899 71.5051 1.50465 71.752 1.66778C71.9989 1.83092 72.2238 2.06019 72.4266 2.3556C72.6338 2.65101 72.7374 3.00154 72.7374 3.40718C72.7374 3.92304 72.5875 4.3397 72.2877 4.65716C71.9923 4.97461 71.6616 5.19948 71.2956 5.33175C70.9341 5.46402 70.5836 5.56323 70.2441 5.62937V5.65582C70.5218 5.68228 70.8327 5.73519 71.1766 5.81455C71.5249 5.89391 71.86 6.02178 72.1819 6.19814C72.5081 6.37451 72.7859 6.63244 73.0152 6.97194C73.2445 7.30703 73.3591 7.73031 73.3591 8.24176C73.3591 8.77967 73.2202 9.24263 72.9424 9.63063C72.6691 10.0142 72.3031 10.314 71.8446 10.5301C71.5756 10.658 71.3155 10.7351 71.0642 10.7616C70.8128 10.788 70.5086 10.8013 70.1515 10.8013ZM68.3327 1.60165H67.6581V5.51693H68.3327C68.8354 5.51693 69.3204 5.39789 69.7877 5.1598C70.2551 4.9173 70.4888 4.36836 70.4888 3.51299C70.4888 2.88249 70.2904 2.38647 69.8935 2.02492C69.7569 1.88824 69.5761 1.78462 69.3512 1.71408C69.1264 1.63912 68.7869 1.60165 68.3327 1.60165ZM68.3989 6.05925H67.6581V9.17429C67.6581 9.64606 67.775 9.94588 68.0086 10.0737C68.2423 10.1972 68.5399 10.2589 68.9015 10.2589C69.1396 10.2589 69.3644 10.2435 69.5761 10.2126C69.7877 10.1818 70.006 10.1046 70.2308 9.98116C70.4557 9.8577 70.6453 9.65488 70.7996 9.3727C70.9539 9.08611 71.0311 8.70031 71.0311 8.21531C71.0311 7.6774 70.9143 7.24971 70.6806 6.93226C70.4513 6.6148 70.1405 6.38994 69.748 6.25766C69.3556 6.12539 68.9059 6.05925 68.3989 6.05925Z" fill="#222222"/>
<path d="M52.6379 6.23782H52.3271V9.35286C52.3271 9.72322 52.3822 10.001 52.4924 10.1862C52.6026 10.367 52.7371 10.4838 52.8958 10.5367C53.0546 10.5852 53.2662 10.6139 53.5308 10.6227V10.8013H48.9541V10.6095C49.4656 10.6095 49.794 10.4948 49.9395 10.2655C50.085 10.0363 50.1578 9.73204 50.1578 9.35286V2.52756C50.1578 2.06019 50.063 1.73172 49.8734 1.54212C49.6838 1.34812 49.3774 1.25112 48.9541 1.25112V1.05933H54.0069C54.6727 1.05933 55.2569 1.16294 55.7596 1.37017C56.2622 1.5774 56.6458 1.8706 56.9103 2.24979C57.1749 2.62897 57.3072 3.06327 57.3072 3.55268C57.3072 3.9495 57.2234 4.30222 57.0558 4.61086C56.8883 4.9195 56.6612 5.17302 56.3746 5.37143C56.0924 5.56984 55.7772 5.72196 55.4289 5.82778C55.883 6.11437 56.3239 6.62142 56.7516 7.34892L57.9156 9.3264C58.114 9.6659 58.297 9.93045 58.4645 10.12C58.6321 10.3052 58.7798 10.4287 58.9077 10.4904C59.0355 10.5477 59.1744 10.5874 59.3243 10.6095V10.8013H56.1828C55.8786 10.2501 55.6449 9.81141 55.4818 9.48513C54.9615 8.46663 54.5823 7.75897 54.3442 7.36215C54.1061 6.96533 53.8592 6.67873 53.6035 6.50237C53.3522 6.32601 53.0303 6.23782 52.6379 6.23782ZM52.8562 1.60165H52.3271V5.6955H52.7702C53.5285 5.6955 54.0995 5.51473 54.4831 5.15318C54.8667 4.78723 55.0585 4.26254 55.0585 3.57913C55.0585 3.15586 54.9747 2.79872 54.8072 2.50772C54.6441 2.21231 54.3971 1.98744 54.0665 1.83312C53.7402 1.67881 53.3368 1.60165 52.8562 1.60165Z" fill="#222222"/>
<path d="M48.0606 1.05933L48.14 3.24183H47.9482C47.86 2.87588 47.7608 2.57385 47.6505 2.33576C47.5447 2.09767 47.3926 1.9169 47.1942 1.79344C46.9958 1.66558 46.7246 1.60165 46.3807 1.60165H44.4165V5.6955H45.9839C46.4513 5.6955 46.7908 5.59189 47.0024 5.38466C47.2185 5.17743 47.3441 4.871 47.3794 4.46536H47.5712V7.32246H47.3794C47.3133 6.89037 47.1523 6.60157 46.8966 6.45607C46.6409 6.31057 46.3366 6.23782 45.9839 6.23782H44.4165V9.04202C44.4165 9.85329 44.8353 10.2589 45.6731 10.2589H46.2683C46.6695 10.2589 46.9958 10.206 47.2471 10.1002C47.5028 9.99438 47.7123 9.81361 47.8754 9.55788C48.043 9.29774 48.1929 8.93179 48.3251 8.46001H48.5169L48.3714 10.8013H41.0303V10.6095C41.5417 10.6095 41.8724 10.4948 42.0223 10.2655C42.1722 10.0319 42.2472 9.72763 42.2472 9.35286V2.52756C42.2472 2.17042 42.1788 1.8684 42.0422 1.62149C41.9055 1.37458 41.5902 1.25112 41.0964 1.25112H41.0303V1.05933H48.0606Z" fill="#222222"/>
<path d="M40.7731 1.05933V1.25112C40.4027 1.29962 40.0897 1.45835 39.8339 1.72731C39.5782 1.99185 39.3489 2.41954 39.1461 3.01036L36.4477 10.8938H36.2493L33.5509 2.8384H33.5245L30.7071 10.8938H30.4888L27.6582 2.4019C27.5524 2.07122 27.4179 1.82431 27.2547 1.66117C27.0916 1.49362 26.9285 1.3856 26.7653 1.3371C26.6066 1.2886 26.4391 1.25994 26.2627 1.25112V1.05933H30.7468V1.25112C30.4954 1.26435 30.2838 1.33269 30.1118 1.45615C29.9399 1.5796 29.8539 1.76037 29.8539 1.99847C29.8539 2.14838 29.8892 2.33356 29.9597 2.55401L31.3949 6.88596H31.428L33.174 1.9191C33.0858 1.73833 32.991 1.60165 32.8896 1.50906C32.7926 1.41646 32.6735 1.35474 32.5324 1.32387C32.3914 1.2886 32.2084 1.26435 31.9835 1.25112V1.05933H36.3684V1.25112C36.1126 1.25112 35.9076 1.28419 35.7533 1.35033C35.6034 1.41205 35.5284 1.56417 35.5284 1.80667C35.5284 1.89926 35.5373 1.99185 35.5549 2.08444C35.5769 2.17263 35.6056 2.28285 35.6409 2.41513C35.6806 2.54299 35.7026 2.61133 35.707 2.62015L37.1289 6.88596H37.1554L38.5112 2.87808C38.617 2.55622 38.6699 2.29388 38.6699 2.09106C38.6699 1.73833 38.5707 1.51346 38.3723 1.41646C38.1783 1.31505 37.9358 1.25994 37.6448 1.25112V1.05933H40.7731Z" fill="#222222"/>
<path d="M15.9453 5.90059C15.9453 5.23922 16.0577 4.60652 16.2826 4.00247C16.5119 3.39842 16.847 2.86933 17.2879 2.41519C17.7288 1.95664 18.2623 1.60171 18.8884 1.35039C19.5189 1.09466 20.231 0.966797 21.0246 0.966797C21.8271 0.966797 22.5413 1.09687 23.1674 1.357C23.7979 1.61273 24.3314 1.96987 24.7679 2.42842C25.2088 2.88696 25.5417 3.41826 25.7666 4.02231C25.9915 4.62195 26.1039 5.26127 26.1039 5.94027C26.1039 6.61486 25.9937 7.24978 25.7732 7.84501C25.5572 8.44024 25.2375 8.96712 24.8142 9.42567C24.391 9.88422 23.8575 10.2458 23.2137 10.5103C22.5744 10.7749 21.8491 10.9071 21.0378 10.9071C20.1648 10.9071 19.4021 10.7594 18.7495 10.464C18.1014 10.1642 17.5701 9.76958 17.1556 9.28017C16.7456 8.79076 16.4413 8.25064 16.2429 7.65982C16.0445 7.069 15.9453 6.48259 15.9453 5.90059ZM18.2601 5.77493C18.2601 6.4363 18.3086 7.08884 18.4056 7.73257C18.507 8.37189 18.7649 8.97153 19.1794 9.53149C19.5939 10.087 20.2177 10.3648 21.0511 10.3648C22.2195 10.3648 22.9668 9.89524 23.2931 8.9561C23.6238 8.01255 23.7891 7.05137 23.7891 6.07254C23.7891 5.30977 23.723 4.59549 23.5907 3.92972C23.4584 3.26394 23.1873 2.69517 22.7772 2.22339C22.3716 1.74721 21.7962 1.50912 21.0511 1.50912C20.2133 1.50912 19.5872 1.78028 19.1728 2.3226C18.7627 2.86051 18.507 3.43369 18.4056 4.04215C18.3086 4.65061 18.2601 5.2282 18.2601 5.77493Z" fill="#222222"/>
<path d="M15.0533 10.8013H7.63281V10.6095C8.13986 10.6095 8.46613 10.497 8.61163 10.2722C8.76154 10.0429 8.8365 9.73645 8.8365 9.35286V2.51433C8.8365 2.09106 8.74391 1.77581 8.55872 1.56858C8.37795 1.35694 8.06931 1.25112 7.63281 1.25112V1.05933H12.2359V1.25112C11.7289 1.25112 11.396 1.36576 11.2373 1.59503C11.0829 1.8199 11.0058 2.12633 11.0058 2.51433V9.02879C11.0058 9.43002 11.0829 9.73645 11.2373 9.94809C11.3916 10.1553 11.6936 10.2589 12.1433 10.2589H12.8179C13.2765 10.2589 13.7086 10.1421 14.1142 9.90841C14.5198 9.67472 14.8814 9.1324 15.1988 8.28145H15.3906L15.0533 10.8013Z" fill="#222222"/>
<path d="M6.93112 1.05933L7.08323 2.78549H6.89144C6.79444 2.4989 6.69964 2.28065 6.60705 2.13074C6.51887 1.98083 6.36896 1.85517 6.15732 1.75376C5.94568 1.65235 5.64807 1.60165 5.26447 1.60165H3.35974V5.58968H5.01977C5.36809 5.58968 5.68554 5.5015 5.97214 5.32514C6.26314 5.14436 6.41966 4.8203 6.44171 4.35293H6.64673V7.17035H6.44171C6.41966 6.87935 6.30943 6.63244 6.11102 6.42962C5.91261 6.2268 5.60398 6.12539 5.18511 6.12539H3.35974V9.35286C3.35974 9.72322 3.44572 10.0252 3.61767 10.2589C3.78963 10.4926 4.10047 10.6095 4.5502 10.6095H4.61634V10.8013H0V10.6095C0.498229 10.6095 0.820094 10.497 0.965595 10.2722C1.1155 10.0473 1.19046 9.74086 1.19046 9.35286V2.5011C1.19046 2.15719 1.12432 1.86399 0.992049 1.62149C0.864185 1.37458 0.555548 1.25112 0.0661366 1.25112H0V1.05933H6.93112Z" fill="#222222"/>
<path fill-rule="evenodd" clip-rule="evenodd" d="M107.886 14.2022H7.625V13.708H107.886V14.2022Z" fill="#222222"/>
<path d="M106.169 16.8995C106.684 16.8995 107.097 17.079 107.409 17.438C107.727 17.7969 107.885 18.338 107.885 19.0611C107.885 19.5345 107.813 19.9351 107.667 20.2629C107.526 20.5854 107.326 20.8299 107.066 20.9964C106.811 21.1577 106.509 21.2383 106.161 21.2383C105.948 21.2383 105.758 21.2097 105.591 21.1525C105.425 21.0953 105.282 21.0224 105.162 20.934C105.048 20.8403 104.949 20.7389 104.865 20.6296H104.819C104.829 20.7181 104.839 20.8299 104.85 20.9652C104.86 21.1005 104.865 21.2175 104.865 21.3164V23.0331H104.179V16.9776H104.741L104.834 17.5472H104.865C104.949 17.4276 105.048 17.3183 105.162 17.2195C105.282 17.1206 105.422 17.0426 105.583 16.9854C105.75 16.9281 105.945 16.8995 106.169 16.8995ZM106.044 17.477C105.763 17.477 105.537 17.5316 105.365 17.6409C105.193 17.7449 105.068 17.9036 104.99 18.1169C104.912 18.3302 104.871 18.6007 104.865 18.9285V19.0611C104.865 19.4045 104.902 19.6958 104.975 19.9351C105.048 20.1744 105.17 20.3565 105.341 20.4814C105.518 20.6062 105.758 20.6687 106.059 20.6687C106.314 20.6687 106.522 20.5984 106.684 20.458C106.85 20.3175 106.972 20.1276 107.05 19.8883C107.134 19.6438 107.175 19.3655 107.175 19.0533C107.175 18.5747 107.082 18.1923 106.894 17.9062C106.712 17.6201 106.429 17.477 106.044 17.477Z" fill="#222222"/>
<path d="M99.4393 16.8995C99.7983 16.8995 100.105 16.9776 100.36 17.1336C100.62 17.2897 100.818 17.5108 100.953 17.7969C101.094 18.0779 101.164 18.4082 101.164 18.788V19.2016H98.3C98.3104 19.675 98.43 20.0366 98.6589 20.2863C98.893 20.5308 99.2182 20.6531 99.6344 20.6531C99.8997 20.6531 100.134 20.6296 100.337 20.5828C100.545 20.5308 100.758 20.458 100.977 20.3643V20.9652C100.763 21.0588 100.553 21.1265 100.345 21.1681C100.136 21.2149 99.8893 21.2383 99.6032 21.2383C99.2078 21.2383 98.8566 21.1577 98.5497 20.9964C98.2479 20.8351 98.0112 20.5958 97.8396 20.2785C97.6731 19.9559 97.5898 19.5632 97.5898 19.1001C97.5898 18.6423 97.6653 18.2496 97.8161 17.9218C97.9722 17.5941 98.1881 17.3417 98.4638 17.1649C98.7448 16.988 99.0699 16.8995 99.4393 16.8995ZM99.4315 17.4614C99.1037 17.4614 98.8436 17.568 98.6511 17.7813C98.4638 17.9894 98.352 18.2808 98.3156 18.6553H100.446C100.446 18.416 100.41 18.2079 100.337 18.0311C100.264 17.8542 100.152 17.7163 100.001 17.6175C99.8555 17.5134 99.6656 17.4614 99.4315 17.4614Z" fill="#222222"/>
<path d="M94.3673 16.9775H95.1164L93.3294 18.9909L95.2647 21.1603H94.4687L92.5803 19.0377V21.1603H91.8936V16.9775H92.5803V19.0065L94.3673 16.9775Z" fill="#222222"/>
<path d="M88.8559 19.0611C88.8559 19.4097 88.8091 19.7192 88.7155 19.9898C88.627 20.2551 88.497 20.4814 88.3253 20.6687C88.1588 20.856 87.9533 20.999 87.7088 21.0979C87.4695 21.1915 87.2016 21.2383 86.905 21.2383C86.6293 21.2383 86.3744 21.1915 86.1403 21.0979C85.9062 20.999 85.7033 20.856 85.5316 20.6687C85.3599 20.4814 85.2247 20.2551 85.1258 19.9898C85.0322 19.7192 84.9854 19.4097 84.9854 19.0611C84.9854 18.5981 85.0634 18.2079 85.2195 17.8906C85.3755 17.568 85.5992 17.3235 85.8906 17.1571C86.1819 16.9854 86.5279 16.8995 86.9284 16.8995C87.3082 16.8995 87.6412 16.9854 87.9273 17.1571C88.2186 17.3235 88.4449 17.568 88.6062 17.8906C88.7727 18.2079 88.8559 18.5981 88.8559 19.0611ZM85.6955 19.0611C85.6955 19.3889 85.7371 19.675 85.8203 19.9195C85.9088 20.1588 86.044 20.3435 86.2261 20.4736C86.4082 20.6036 86.6397 20.6687 86.9206 20.6687C87.2016 20.6687 87.4331 20.6036 87.6152 20.4736C87.7972 20.3435 87.9299 20.1588 88.0131 19.9195C88.1016 19.675 88.1458 19.3889 88.1458 19.0611C88.1458 18.7282 88.1016 18.4446 88.0131 18.2105C87.9247 17.9764 87.7894 17.7969 87.6074 17.6721C87.4305 17.542 87.199 17.477 86.9128 17.477C86.4862 17.477 86.1767 17.6175 85.9842 17.8984C85.7917 18.1793 85.6955 18.5669 85.6955 19.0611Z" fill="#222222"/>
<path d="M80.4567 16.8995C80.9717 16.8995 81.3853 17.079 81.6975 17.438C82.0148 17.7969 82.1735 18.338 82.1735 19.0611C82.1735 19.5345 82.1007 19.9351 81.955 20.2629C81.8145 20.5854 81.6142 20.8299 81.3541 20.9964C81.0992 21.1577 80.7975 21.2383 80.4489 21.2383C80.2356 21.2383 80.0457 21.2097 79.8792 21.1525C79.7128 21.0953 79.5697 21.0224 79.45 20.934C79.3356 20.8403 79.2368 20.7389 79.1535 20.6296H79.1067C79.1171 20.7181 79.1275 20.8299 79.1379 20.9652C79.1483 21.1005 79.1535 21.2175 79.1535 21.3164V23.0331H78.4668V16.9776H79.0287L79.1223 17.5472H79.1535C79.2368 17.4276 79.3356 17.3183 79.45 17.2195C79.5697 17.1206 79.7102 17.0426 79.8714 16.9854C80.0379 16.9281 80.233 16.8995 80.4567 16.8995ZM80.3319 17.477C80.0509 17.477 79.8246 17.5316 79.6529 17.6409C79.4813 17.7449 79.3564 17.9036 79.2784 18.1169C79.2003 18.3302 79.1587 18.6007 79.1535 18.9285V19.0611C79.1535 19.4045 79.1899 19.6958 79.2628 19.9351C79.3356 20.1744 79.4579 20.3565 79.6295 20.4814C79.8064 20.6062 80.0457 20.6687 80.3475 20.6687C80.6024 20.6687 80.8105 20.5984 80.9717 20.458C81.1382 20.3175 81.2605 20.1276 81.3385 19.8883C81.4218 19.6438 81.4634 19.3655 81.4634 19.0533C81.4634 18.5747 81.3697 18.1923 81.1824 17.9062C81.0004 17.6201 80.7168 17.477 80.3319 17.477Z" fill="#222222"/>
<path d="M71.626 18.6477C71.626 18.039 71.6858 17.5213 71.8055 17.0947C71.9303 16.6629 72.1202 16.3196 72.3751 16.0647C72.6352 15.8046 72.9682 15.6303 73.374 15.5418C73.7121 15.469 74.0425 15.404 74.365 15.3467C74.6876 15.2895 74.9893 15.2375 75.2702 15.1907L75.3873 15.7915C75.252 15.8124 75.1012 15.8384 74.9347 15.8696C74.7682 15.8956 74.5991 15.9242 74.4275 15.9554C74.2558 15.9814 74.0893 16.01 73.928 16.0413C73.772 16.0673 73.6341 16.0933 73.5144 16.1193C73.3428 16.1557 73.1893 16.2181 73.054 16.3066C72.9188 16.3898 72.8017 16.5043 72.7029 16.6499C72.6092 16.7956 72.5338 16.9751 72.4766 17.1884C72.4193 17.4017 72.3855 17.654 72.3751 17.9453H72.4219C72.4948 17.8465 72.5936 17.745 72.7185 17.641C72.8485 17.5369 73.002 17.4485 73.1789 17.3757C73.361 17.3028 73.5665 17.2664 73.7954 17.2664C74.1595 17.2664 74.4613 17.3471 74.7006 17.5083C74.9451 17.6644 75.1272 17.8829 75.2468 18.1638C75.3717 18.4448 75.4341 18.7725 75.4341 19.1471C75.4341 19.6101 75.3535 19.9977 75.1922 20.3098C75.0309 20.622 74.8072 20.8561 74.5211 21.0121C74.235 21.163 73.902 21.2384 73.5223 21.2384C73.2361 21.2384 72.976 21.1838 72.7419 21.0746C72.5078 20.9601 72.3075 20.7936 72.141 20.5751C71.9745 20.3566 71.8471 20.0861 71.7586 19.7636C71.6702 19.441 71.626 19.0691 71.626 18.6477ZM73.5769 20.6688C73.8058 20.6688 74.0035 20.622 74.1699 20.5283C74.3416 20.4347 74.4743 20.2812 74.5679 20.0679C74.6616 19.8546 74.7084 19.5711 74.7084 19.2173C74.7084 18.7907 74.6278 18.4552 74.4665 18.2107C74.3104 17.9609 74.0503 17.8361 73.6861 17.8361C73.4572 17.8361 73.2491 17.8881 73.0618 17.9922C72.8746 18.091 72.7185 18.2055 72.5936 18.3355C72.4688 18.4656 72.3803 18.5748 72.3283 18.6633C72.3283 18.9182 72.3465 19.1653 72.3829 19.4046C72.4193 19.6439 72.4818 19.8598 72.5702 20.0523C72.6639 20.2396 72.7913 20.3905 72.9526 20.5049C73.1191 20.6142 73.3272 20.6688 73.5769 20.6688Z" fill="#222222"/>
<path d="M64.5625 15.2452C64.5417 15.5054 64.4767 15.7239 64.3674 15.9007C64.2634 16.0776 64.1073 16.2103 63.8992 16.2987C63.6911 16.3872 63.4206 16.4314 63.0877 16.4314C62.7495 16.4314 62.4764 16.3872 62.2683 16.2987C62.0654 16.2103 61.9171 16.0802 61.8235 15.9085C61.7298 15.7317 61.6726 15.5106 61.6518 15.2452H62.2917C62.3177 15.5262 62.3905 15.7161 62.5102 15.8149C62.6351 15.9085 62.8327 15.9554 63.1033 15.9554C63.3426 15.9554 63.5299 15.9059 63.6651 15.8071C63.8056 15.703 63.8888 15.5158 63.9148 15.2452H64.5625ZM61.8235 19.5294C61.8235 19.5762 61.8209 19.6439 61.8157 19.7323C61.8157 19.8155 61.8131 19.9066 61.8079 20.0054C61.8027 20.0991 61.7975 20.1901 61.7923 20.2785C61.7871 20.3618 61.7819 20.4294 61.7767 20.4814L64.0163 16.9776H64.8591V21.1604H64.2192V18.6944C64.2192 18.6112 64.2192 18.5019 64.2192 18.3667C64.2244 18.2314 64.2296 18.0987 64.2348 17.9687C64.24 17.8334 64.2452 17.732 64.2504 17.6643L62.0264 21.1604H61.1758V16.9776H61.8235V19.5294Z" fill="#222222"/>
<path d="M53.1504 21.1603V16.9775H53.8371V18.6943H54.9218C55.286 18.6943 55.5851 18.7385 55.8192 18.827C56.0533 18.9154 56.2276 19.0481 56.3421 19.225C56.4565 19.3966 56.5137 19.6151 56.5137 19.8805C56.5137 20.1406 56.4565 20.3669 56.3421 20.5594C56.2328 20.7519 56.0585 20.9001 55.8192 21.0042C55.5851 21.1082 55.2756 21.1603 54.8906 21.1603H53.1504ZM54.8282 20.6062C55.1247 20.6062 55.3666 20.5568 55.5539 20.4579C55.7412 20.3539 55.8348 20.1744 55.8348 19.9195C55.8348 19.6646 55.749 19.4929 55.5773 19.4045C55.4056 19.3108 55.1585 19.264 54.836 19.264H53.8371V20.6062H54.8282ZM57.2083 21.1603V16.9775H57.895V21.1603H57.2083Z" fill="#222222"/>
<path d="M46.9182 16.9775V18.7177H49.189V16.9775H49.8757V21.1603H49.189V19.2952H46.9182V21.1603H46.2314V16.9775H46.9182Z" fill="#222222"/>
<path d="M40.0959 18.4992C40.0959 18.7437 40.1635 18.9258 40.2988 19.0455C40.4393 19.1599 40.6395 19.2172 40.8997 19.2172C41.1598 19.2172 41.3965 19.1781 41.6098 19.1001C41.8231 19.0169 42.0416 18.9076 42.2653 18.7724V16.9775H42.952V21.1603H42.2653V19.2952C42.0312 19.4461 41.7997 19.5657 41.5708 19.6542C41.3471 19.7374 41.0765 19.779 40.7592 19.779C40.3326 19.779 39.9996 19.6672 39.7603 19.4435C39.5262 19.2198 39.4092 18.9206 39.4092 18.5461V16.9775H40.0959V18.4992Z" fill="#222222"/>
<path d="M36.5307 19.0611C36.5307 19.4097 36.4839 19.7192 36.3903 19.9898C36.3018 20.2551 36.1718 20.4814 36.0001 20.6687C35.8336 20.856 35.6281 20.999 35.3836 21.0979C35.1443 21.1915 34.8764 21.2383 34.5798 21.2383C34.3041 21.2383 34.0492 21.1915 33.8151 21.0979C33.581 20.999 33.3781 20.856 33.2064 20.6687C33.0347 20.4814 32.8995 20.2551 32.8006 19.9898C32.707 19.7192 32.6602 19.4097 32.6602 19.0611C32.6602 18.5981 32.7382 18.2079 32.8943 17.8906C33.0503 17.568 33.274 17.3235 33.5654 17.1571C33.8567 16.9854 34.2027 16.8995 34.6032 16.8995C34.983 16.8995 35.316 16.9854 35.6021 17.1571C35.8934 17.3235 36.1197 17.568 36.281 17.8906C36.4475 18.2079 36.5307 18.5981 36.5307 19.0611ZM33.3703 19.0611C33.3703 19.3889 33.4119 19.675 33.4951 19.9195C33.5836 20.1588 33.7188 20.3435 33.9009 20.4736C34.083 20.6036 34.3145 20.6687 34.5954 20.6687C34.8764 20.6687 35.1079 20.6036 35.29 20.4736C35.472 20.3435 35.6047 20.1588 35.6879 19.9195C35.7764 19.675 35.8206 19.3889 35.8206 19.0611C35.8206 18.7282 35.7764 18.4446 35.6879 18.2105C35.5995 17.9764 35.4642 17.7969 35.2822 17.6721C35.1053 17.542 34.8738 17.477 34.5876 17.477C34.161 17.477 33.8515 17.6175 33.659 17.8984C33.4665 18.1793 33.3703 18.5669 33.3703 19.0611Z" fill="#222222"/>
<path d="M30.1963 17.555H28.8307V21.1603H28.1518V17.555H26.8018V16.9775H30.1963V17.555Z" fill="#222222"/>
<path d="M22.5692 16.8995C22.9281 16.8995 23.2351 16.9776 23.49 17.1336C23.7501 17.2897 23.9478 17.5108 24.0831 17.7969C24.2235 18.0779 24.2938 18.4082 24.2938 18.788V19.2016H21.4299C21.4403 19.675 21.5599 20.0366 21.7888 20.2863C22.0229 20.5308 22.3481 20.6531 22.7643 20.6531C23.0296 20.6531 23.2637 20.6296 23.4666 20.5828C23.6747 20.5308 23.888 20.458 24.1065 20.3643V20.9652C23.8932 21.0588 23.6825 21.1265 23.4744 21.1681C23.2663 21.2149 23.0192 21.2383 22.733 21.2383C22.3377 21.2383 21.9865 21.1577 21.6796 20.9964C21.3778 20.8351 21.1411 20.5958 20.9694 20.2785C20.803 19.9559 20.7197 19.5632 20.7197 19.1001C20.7197 18.6423 20.7952 18.2496 20.946 17.9218C21.1021 17.5941 21.318 17.3417 21.5937 17.1649C21.8747 16.988 22.1998 16.8995 22.5692 16.8995ZM22.5614 17.4614C22.2336 17.4614 21.9735 17.568 21.781 17.7813C21.5937 17.9894 21.4819 18.2808 21.4455 18.6553H23.5758C23.5758 18.416 23.5394 18.2079 23.4666 18.0311C23.3938 17.8542 23.2819 17.7163 23.131 17.6175C22.9854 17.5134 22.7955 17.4614 22.5614 17.4614Z" fill="#222222"/>
<path d="M17.8692 18.031C17.8692 18.2911 17.7912 18.494 17.6351 18.6397C17.479 18.7854 17.2787 18.8842 17.0342 18.9362V18.9675C17.2943 19.0039 17.5206 19.0975 17.7131 19.2484C17.9056 19.394 18.0019 19.623 18.0019 19.9351C18.0019 20.112 17.968 20.2759 17.9004 20.4267C17.838 20.5776 17.7391 20.7076 17.6039 20.8169C17.4686 20.9261 17.2943 21.012 17.081 21.0744C16.8677 21.1316 16.6102 21.1603 16.3085 21.1603H14.5059V16.9775H16.3007C16.5972 16.9775 16.8625 17.0114 17.0966 17.079C17.336 17.1414 17.5232 17.2507 17.6585 17.4067C17.799 17.5576 17.8692 17.7657 17.8692 18.031ZM17.2917 19.9351C17.2917 19.6958 17.2007 19.5241 17.0186 19.4201C16.8365 19.316 16.5686 19.264 16.2148 19.264H15.1926V20.6062H16.2305C16.5738 20.6062 16.8365 20.5568 17.0186 20.4579C17.2007 20.3539 17.2917 20.1796 17.2917 19.9351ZM17.1747 18.1169C17.1747 17.9192 17.1018 17.7761 16.9562 17.6877C16.8157 17.594 16.5842 17.5472 16.2617 17.5472H15.1926V18.6943H16.1368C16.475 18.6943 16.7325 18.6475 16.9094 18.5539C17.0862 18.4602 17.1747 18.3146 17.1747 18.1169Z" fill="#222222"/>
<path d="M11.7531 22.6117H11.082V21.1603H7.625V16.9775H8.31171V20.5828H10.4733V16.9775H11.16V20.5906H11.7531V22.6117Z" fill="#222222"/>
</svg>
